<svg width="240" height="240" viewBox="0 0 240 240" fill="none" xmlns="http://www.w3.org/2000/svg">
<g clip-path="url(#clip0_1_2)">
<path d="M90 30H50C44.6957 30 39.6086 32.1071 35.8579 35.8579C32.1071 39.6086 30 44.6957 30 50V90C30 95.3043 32.1071 100.391 35.8579 104.142C39.6086 107.893 44.6957 110 50 110H90C95.3043 110 100.391 107.893 104.142 104.142C107.893 100.391 110 95.3043 110 90V50C110 44.6957 107.893 39.6086 104.142 35.8579C100.391 32.1071 95.3043 30 90 30ZM50 90V50H90V90H50Z" fill="black"/>
<path d="M190 30H150C144.696 30 139.609 32.1071 135.858 35.8579C132.107 39.6086 130 44.6957 130 50V90C130 95.3043 132.107 100.391 135.858 104.142C139.609 107.893 144.696 110 150 110H190C195.304 110 200.391 107.893 204.142 104.142C207.893 100.391 210 95.3043 210 90V50C210 44.6957 207.893 39.6086 204.142 35.8579C200.391 32.1071 195.304 30 190 30ZM150 90V50H190V90H150Z" fill="black"/>
<path d="M90 130H50C44.6957 130 39.6086 132.107 35.8579 135.858C32.1071 139.609 30 144.696 30 150V190C30 195.304 32.1071 200.391 35.8579 204.142C39.6086 207.893 44.6957 210 50 210H90C95.3043 210 100.391 207.893 104.142 204.142C107.893 200.391 110 195.304 110 190V150C110 144.696 107.893 139.609 104.142 135.858C100.391 132.107 95.3043 130 90 130ZM50 190V150H90V190H50Z" fill="black"/>
<path d="M190 130H150C144.696 130 139.609 132.107 135.858 135.858C132.107 139.609 130 144.696 130 150V190C130 195.304 132.107 200.391 135.858 204.142C139.609 207.893 144.696 210 150 210H190C195.304 210 200.391 207.893 204.142 204.142C207.893 200.391 210 195.304 210 190V150C210 144.696 207.893 139.609 204.142 135.858C200.391 132.107 195.304 130 190 130ZM150 190V150H190V190H150Z" fill="black"/>
</g>
<defs>
<clipPath id="clip0_1_2">
<rect width="240" height="240" fill="white"/>
</clipPath>
</defs>
</svg>
